<svg xmlns="http://www.w3.org/2000/svg" viewBox="0 0 300 300" width="300" height="300">
<rect width="300" height="300" fill="#fafafa"/>
<rect x="60" y="112.5" width="50" height="137.5" fill="#3498db" rx="3"/>
<text x="85" y="107.5" font-size="13" font-weight="bold" fill="#333" text-anchor="middle">5</text>
<text x="85" y="270" font-size="12" fill="#555" text-anchor="middle">a</text>
<rect x="120" y="30" width="50" height="220" fill="#e74c3c" rx="3"/>
<text x="145" y="25" font-size="13" font-weight="bold" fill="#333" text-anchor="middle">8</text>
<text x="145" y="270" font-size="12" fill="#555" text-anchor="middle">b</text>
<rect x="180" y="167.5" width="50" height="82.5" fill="#2ecc71" rx="3"/>
<text x="205" y="162.5" font-size="13" font-weight="bold" fill="#333" text-anchor="middle">3</text>
<text x="205" y="270" font-size="12" fill="#555" text-anchor="middle">c</text>
<line x1="50" y1="30" x2="50" y2="250" stroke="#333" stroke-width="1.5"/>
<line x1="50" y1="250" x2="290" y2="250" stroke="#333" stroke-width="1.5"/>
<line x1="45" y1="250" x2="50" y2="250" stroke="#333"/>
<text x="40" y="254" font-size="11" fill="#555" text-anchor="end">0</text>
<line x1="45" y1="195" x2="50" y2="195" stroke="#333"/>
<text x="40" y="199" font-size="11" fill="#555" text-anchor="end">2</text>
<line x1="45" y1="140" x2="50" y2="140" stroke="#333"/>
<text x="40" y="144" font-size="11" fill="#555" text-anchor="end">4</text>
<line x1="45" y1="85" x2="50" y2="85" stroke="#333"/>
<text x="40" y="89" font-size="11" fill="#555" text-anchor="end">6</text>
<line x1="45" y1="30" x2="50" y2="30" stroke="#333"/>
<text x="40" y="34" font-size="11" fill="#555" text-anchor="end">8</text>
</svg>