<svg xmlns="http://www.w3.org/2000/svg" viewBox="0 0 400 400" width="400" height="400">
<rect width="400" height="400" fill="#fafafa"/>
<line x1="0" y1="0" x2="0" y2="400" stroke="#333" stroke-width="1" opacity="0.15"/>
<line x1="0" y1="400" x2="400" y2="400" stroke="#333" stroke-width="1" opacity="0.15"/>
<line x1="40" y1="0" x2="40" y2="400" stroke="#333" stroke-width="1" opacity="0.15"/>
<line x1="0" y1="360" x2="400" y2="360" stroke="#333" stroke-width="1" opacity="0.15"/>
<line x1="80" y1="0" x2="80" y2="400" stroke="#333" stroke-width="1" opacity="0.15"/>
<line x1="0" y1="320" x2="400" y2="320" stroke="#333" stroke-width="1" opacity="0.15"/>
<line x1="120" y1="0" x2="120" y2="400" stroke="#333" stroke-width="1" opacity="0.15"/>
<line x1="0" y1="280" x2="400" y2="280" stroke="#333" stroke-width="1" opacity="0.15"/>
<line x1="160" y1="0" x2="160" y2="400" stroke="#333" stroke-width="1" opacity="0.15"/>
<line x1="0" y1="240" x2="400" y2="240" stroke="#333" stroke-width="1" opacity="0.15"/>
<line x1="200" y1="0" x2="200" y2="400" stroke="#333" stroke-width="1" opacity="0.8"/>
<line x1="0" y1="200" x2="400" y2="200" stroke="#333" stroke-width="1" opacity="0.8"/>
<line x1="240" y1="0" x2="240" y2="400" stroke="#333" stroke-width="1" opacity="0.15"/>
<line x1="0" y1="160" x2="400" y2="160" stroke="#333" stroke-width="1" opacity="0.15"/>
<line x1="280" y1="0" x2="280" y2="400" stroke="#333" stroke-width="1" opacity="0.15"/>
<line x1="0" y1="120" x2="400" y2="120" stroke="#333" stroke-width="1" opacity="0.15"/>
<line x1="320" y1="0" x2="320" y2="400" stroke="#333" stroke-width="1" opacity="0.15"/>
<line x1="0" y1="80" x2="400" y2="80" stroke="#333" stroke-width="1" opacity="0.15"/>
<line x1="360" y1="0" x2="360" y2="400" stroke="#333" stroke-width="1" opacity="0.15"/>
<line x1="0" y1="40" x2="400" y2="40" stroke="#333" stroke-width="1" opacity="0.15"/>
<line x1="400" y1="0" x2="400" y2="400" stroke="#333" stroke-width="1" opacity="0.15"/>
<line x1="0" y1="0" x2="400" y2="0" stroke="#333" stroke-width="1" opacity="0.15"/>
<line x1="200" y1="0" x2="200" y2="400" stroke="#333" stroke-width="2"/>
<line x1="0" y1="200" x2="400" y2="200" stroke="#333" stroke-width="2"/>
<defs>
  <marker id="arrow" markerWidth="8" markerHeight="6" refX="8" refY="3" orient="auto">
    <polygon points="0 0, 8 3, 0 6" fill="#333"/>
  </marker>
</defs>
<line x1="200" y1="5" x2="200" y2="-5" stroke="#333" stroke-width="2" marker-end="url(#arrow)"/>
<line x1="395" y1="200" x2="405" y2="200" stroke="#333" stroke-width="2" marker-end="url(#arrow)"/>
<text x="390" y="190" font-size="14" fill="#333" font-family="sans-serif">x</text>
<text x="205" y="15" font-size="14" fill="#333" font-family="sans-serif">y</text>
<text x="203" y="215" font-size="12" fill="#333">O</text>
<line x1="0" y1="197" x2="0" y2="203" stroke="#333"/>
<text x="-3" y="216" font-size="11" fill="#555" text-anchor="middle">-5</text>
<line x1="197" y1="400" x2="203" y2="400" stroke="#333"/>
<text x="194" y="405" font-size="11" fill="#555" text-anchor="end">-5</text>
<line x1="40" y1="197" x2="40" y2="203" stroke="#333"/>
<text x="37" y="216" font-size="11" fill="#555" text-anchor="middle">-4</text>
<line x1="197" y1="360" x2="203" y2="360" stroke="#333"/>
<text x="194" y="365" font-size="11" fill="#555" text-anchor="end">-4</text>
<line x1="80" y1="197" x2="80" y2="203" stroke="#333"/>
<text x="77" y="216" font-size="11" fill="#555" text-anchor="middle">-3</text>
<line x1="197" y1="320" x2="203" y2="320" stroke="#333"/>
<text x="194" y="325" font-size="11" fill="#555" text-anchor="end">-3</text>
<line x1="120" y1="197" x2="120" y2="203" stroke="#333"/>
<text x="117" y="216" font-size="11" fill="#555" text-anchor="middle">-2</text>
<line x1="197" y1="280" x2="203" y2="280" stroke="#333"/>
<text x="194" y="285" font-size="11" fill="#555" text-anchor="end">-2</text>
<line x1="160" y1="197" x2="160" y2="203" stroke="#333"/>
<text x="157" y="216" font-size="11" fill="#555" text-anchor="middle">-1</text>
<line x1="197" y1="240" x2="203" y2="240" stroke="#333"/>
<text x="194" y="245" font-size="11" fill="#555" text-anchor="end">-1</text>
<line x1="240" y1="197" x2="240" y2="203" stroke="#333"/>
<text x="237" y="216" font-size="11" fill="#555" text-anchor="middle">1</text>
<line x1="197" y1="160" x2="203" y2="160" stroke="#333"/>
<text x="194" y="165" font-size="11" fill="#555" text-anchor="end">1</text>
<line x1="280" y1="197" x2="280" y2="203" stroke="#333"/>
<text x="277" y="216" font-size="11" fill="#555" text-anchor="middle">2</text>
<line x1="197" y1="120" x2="203" y2="120" stroke="#333"/>
<text x="194" y="125" font-size="11" fill="#555" text-anchor="end">2</text>
<line x1="320" y1="197" x2="320" y2="203" stroke="#333"/>
<text x="317" y="216" font-size="11" fill="#555" text-anchor="middle">3</text>
<line x1="197" y1="80" x2="203" y2="80" stroke="#333"/>
<text x="194" y="85" font-size="11" fill="#555" text-anchor="end">3</text>
<line x1="360" y1="197" x2="360" y2="203" stroke="#333"/>
<text x="357" y="216" font-size="11" fill="#555" text-anchor="middle">4</text>
<line x1="197" y1="40" x2="203" y2="40" stroke="#333"/>
<text x="194" y="45" font-size="11" fill="#555" text-anchor="end">4</text>
<line x1="400" y1="197" x2="400" y2="203" stroke="#333"/>
<text x="397" y="216" font-size="11" fill="#555" text-anchor="middle">5</text>
<line x1="197" y1="0" x2="203" y2="0" stroke="#333"/>
<text x="194" y="5" font-size="11" fill="#555" text-anchor="end">5</text>
</svg>