<svg xmlns="http://www.w3.org/2000/svg" viewBox="0 0 400 400" width="400" height="400">
<rect width="400" height="400" fill="#fafafa"/>
<line x1="0" y1="0" x2="0" y2="400" stroke="#333" stroke-width="1" opacity="0.1"/>
<line x1="0" y1="400" x2="400" y2="400" stroke="#333" stroke-width="1" opacity="0.1"/>
<line x1="40" y1="0" x2="40" y2="400" stroke="#333" stroke-width="1" opacity="0.1"/>
<line x1="0" y1="360" x2="400" y2="360" stroke="#333" stroke-width="1" opacity="0.1"/>
<line x1="80" y1="0" x2="80" y2="400" stroke="#333" stroke-width="1" opacity="0.1"/>
<line x1="0" y1="320" x2="400" y2="320" stroke="#333" stroke-width="1" opacity="0.1"/>
<line x1="120" y1="0" x2="120" y2="400" stroke="#333" stroke-width="1" opacity="0.1"/>
<line x1="0" y1="280" x2="400" y2="280" stroke="#333" stroke-width="1" opacity="0.1"/>
<line x1="160" y1="0" x2="160" y2="400" stroke="#333" stroke-width="1" opacity="0.1"/>
<line x1="0" y1="240" x2="400" y2="240" stroke="#333" stroke-width="1" opacity="0.1"/>
<line x1="200" y1="0" x2="200" y2="400" stroke="#333" stroke-width="1" opacity="0.5"/>
<line x1="0" y1="200" x2="400" y2="200" stroke="#333" stroke-width="1" opacity="0.5"/>
<line x1="240" y1="0" x2="240" y2="400" stroke="#333" stroke-width="1" opacity="0.1"/>
<line x1="0" y1="160" x2="400" y2="160" stroke="#333" stroke-width="1" opacity="0.1"/>
<line x1="280" y1="0" x2="280" y2="400" stroke="#333" stroke-width="1" opacity="0.1"/>
<line x1="0" y1="120" x2="400" y2="120" stroke="#333" stroke-width="1" opacity="0.1"/>
<line x1="320" y1="0" x2="320" y2="400" stroke="#333" stroke-width="1" opacity="0.1"/>
<line x1="0" y1="80" x2="400" y2="80" stroke="#333" stroke-width="1" opacity="0.1"/>
<line x1="360" y1="0" x2="360" y2="400" stroke="#333" stroke-width="1" opacity="0.1"/>
<line x1="0" y1="40" x2="400" y2="40" stroke="#333" stroke-width="1" opacity="0.1"/>
<line x1="400" y1="0" x2="400" y2="400" stroke="#333" stroke-width="1" opacity="0.1"/>
<line x1="0" y1="0" x2="400" y2="0" stroke="#333" stroke-width="1" opacity="0.1"/>
<line x1="200" y1="0" x2="200" y2="400" stroke="#333" stroke-width="2"/>
<line x1="0" y1="200" x2="400" y2="200" stroke="#333" stroke-width="2"/>
<text x="390" y="190" font-size="14">x</text>
<text x="205" y="15" font-size="14">y</text>
<path d=" M30,500 L31,498 L32,496 L33,494 L34,492 L35,490 L36,488 L37,486 L38,484 L39,482 L40,480 L41,478 L42,476 L43,474 L44,472 L45,470 L46,468 L47,466 L48,464 L49,462 L50,460 L51,458 L52,456 L53,454 L54,452 L55,450 L56,448 L57,446 L58,444 L59,442 L60,440 L61,438 L62,436 L63,434 L64,432 L65,430 L66,428 L67,426 L68,424 L69,422 L70,420 L71,418 L72,416 L73,414 L74,412 L75,410 L76,408 L77,406 L78,404 L79,402 L80,400 L81,398 L82,396 L83,394 L84,392 L85,390 L86,388 L87,386 L88,384 L89,382 L90,380 L91,378 L92,376 L93,374 L94,372 L95,370 L96,368 L97,366 L98,364 L99,362 L100,360 L101,358 L102,356 L103,354 L104,352 L105,350 L106,348 L107,346 L108,344 L109,342 L110,340 L111,338 L112,336 L113,334 L114,332 L115,330 L116,328 L117,326 L118,324 L119,322 L120,320 L121,318 L122,316 L123,314 L124,312 L125,310 L126,308 L127,306 L128,304 L129,302 L130,300 L131,298 L132,296 L133,294 L134,292 L135,290 L136,288 L137,286 L138,284 L139,282 L140,280 L141,278 L142,276 L143,274 L144,272 L145,270 L146,268 L147,266 L148,264 L149,262 L150,260 L151,258 L152,256 L153,254 L154,252 L155,250 L156,248 L157,246 L158,244 L159,242 L160,240 L161,238 L162,236 L163,234 L164,232 L165,230 L166,228 L167,226 L168,224 L169,222 L170,220 L171,218 L172,216 L173,214 L174,212 L175,210 L176,208 L177,206 L178,204 L179,202 L180,200 L181,198 L182,196 L183,194 L184,192 L185,190 L186,188 L187,186 L188,184 L189,182 L190,180 L191,178 L192,176 L193,174 L194,172 L195,170 L196,168 L197,166 L198,164 L199,162 L200,160 L201,158 L202,156 L203,154 L204,152 L205,150 L206,148 L207,146 L208,144 L209,142 L210,140 L211,138 L212,136 L213,134 L214,132 L215,130 L216,128 L217,126 L218,124 L219,122 L220,120 L221,118 L222,116 L223,114 L224,112 L225,110 L226,108 L227,106 L228,104 L229,102 L230,100 L231,98 L232,96 L233,94 L234,92 L235,90 L236,88 L237,86 L238,84 L239,82 L240,80 L241,78 L242,76 L243,74 L244,72 L245,70 L246,68 L247,66 L248,64 L249,62 L250,60 L251,58 L252,56 L253,54 L254,52 L255,50 L256,48 L257,46 L258,44 L259,42 L260,40 L261,38 L262,36 L263,34 L264,32 L265,30 L266,28 L267,26 L268,24 L269,22 L270,20 L271,18 L272,16 L273,14 L274,12 L275,10 L276,8 L277,6 L278,4 L279,2 L280,0 L281,-2 L282,-4 L283,-6 L284,-8 L285,-10 L286,-12 L287,-14 L288,-16 L289,-18 L290,-20 L291,-22 L292,-24 L293,-26 L294,-28 L295,-30 L296,-32 L297,-34 L298,-36 L299,-38 L300,-40 L301,-42 L302,-44 L303,-46 L304,-48 L305,-50 L306,-52 L307,-54 L308,-56 L309,-58 L310,-60 L311,-62 L312,-64 L313,-66 L314,-68 L315,-70 L316,-72 L317,-74 L318,-76 L319,-78 L320,-80 L321,-82 L322,-84 L323,-86 L324,-88 L325,-90 L326,-92 L327,-94 L328,-96 L329,-98 L330,-100" fill="none" stroke="#e74c3c" stroke-width="2.5"/>
<text x="10" y="20" font-size="14" fill="#e74c3c" font-weight="bold">y = x*2+1</text>
</svg>